<?xml version="1.0" standalone="no"?>
<!DOCTYPE svg PUBLIC "-//W3C//DTD SVG 20010904//EN"
 "http://www.w3.org/TR/2001/REC-SVG-20010904/DTD/svg10.dtd">
<svg version="1.0" xmlns="http://www.w3.org/2000/svg"
 width="300.000000pt" height="100.000000pt" viewBox="0 0 1000.000000 666.000000"
 preserveAspectRatio="xMidYMid meet">

<g transform="translate(0.000000,666.000000) scale(0.100000,-0.100000)"
fill="#000000" stroke="none">
<path d="M494 6111 c-2 -2 -4 -226 -4 -498 l0 -493 813 0 814 0 103 -252 c57
-139 170 -417 252 -618 82 -201 217 -531 300 -735 83 -203 155 -374 159 -379
15 -17 -9 -70 256 574 69 168 161 393 205 500 205 501 324 790 348 846 l21 51
566 7 c311 4 566 6 568 4 1 -2 -3 -797 -9 -1768 -7 -971 -10 -1775 -8 -1788 4
-20 9 -22 78 -22 59 0 77 4 90 18 8 10 214 421 457 913 243 492 733 1476 1090
2188 480 957 646 1296 638 1304 -16 16 -166 10 -260 -9 -578 -119 -1179 -463
-1408 -807 -51 -77 -97 -185 -159 -377 -46 -143 -96 -238 -172 -328 -42 -50
-139 -132 -157 -132 -4 0 -6 402 -4 893 l4 892 -350 7 c-376 8 -4224 16 -4231
9z"/>
<path d="M9208 4678 c-91 -178 -309 -600 -483 -938 -723 -1402 -961 -1862
-1026 -1988 -38 -73 -69 -142 -69 -152 0 -19 10 -19 413 -15 844 10 892 12
938 35 58 30 116 92 189 200 81 121 195 355 214 439 12 55 15 280 18 1401 3
1180 1 1335 -12 1338 -11 2 -64 -93 -182 -320z"/>
<path d="M3645 4328 c-9 -27 -464 -1221 -944 -2477 -56 -145 -101 -273 -101
-283 0 -19 14 -19 528 -13 290 4 533 8 540 10 9 4 12 286 12 1367 0 750 -3
1373 -6 1386 -7 24 -22 29 -29 10z"/>
<path d="M537 4323 c-2 -4 -6 -629 -8 -1388 l-4 -1380 534 -8 c315 -5 538 -4
543 1 9 9 -45 154 -455 1227 -80 209 -245 641 -367 960 -121 319 -225 584
-229 588 -5 5 -11 5 -14 0z"/>
<path d="M2270 1147 c-61 -31 -43 -117 25 -117 41 0 65 22 65 59 0 52 -45 81
-90 58z"/>
<path d="M5340 1153 c-39 -14 -54 -78 -24 -107 24 -24 80 -20 98 6 21 29 20
51 -1 76 -20 23 -50 33 -73 25z"/>
<path d="M4110 1023 c0 -120 -1 -125 -18 -110 -97 88 -263 43 -316 -85 -21
-49 -21 -167 -1 -216 22 -51 82 -110 125 -122 77 -22 183 2 209 47 9 15 10 13
11 -14 0 -33 0 -33 50 -33 l50 0 0 330 0 330 -55 0 -55 0 0 -127z m-50 -181
c108 -79 56 -269 -74 -266 -54 1 -90 26 -110 75 -20 48 -20 90 -2 132 34 81
119 108 186 59z"/>
<path d="M8390 820 l0 -330 50 0 c50 0 50 0 50 32 l0 32 28 -27 c51 -49 145
-61 219 -28 110 50 154 219 92 348 -52 108 -193 146 -293 78 l-36 -24 0 124 0
125 -55 0 -55 0 0 -330z m303 28 c58 -30 77 -155 34 -219 -13 -19 -39 -40 -61
-48 -52 -20 -111 0 -143 48 -32 47 -32 135 0 182 36 53 109 69 170 37z"/>
<path d="M7055 1117 c-91 -30 -141 -74 -187 -160 -20 -36 -23 -57 -23 -152 0
-100 2 -115 27 -161 86 -163 308 -218 437 -107 l41 35 0 -41 0 -41 50 0 50 0
0 170 0 170 -135 0 -135 0 0 -45 0 -45 80 0 c77 0 80 -1 80 -24 0 -34 -40 -88
-85 -113 -47 -27 -137 -31 -188 -9 -127 54 -159 270 -57 377 54 56 130 72 211
44 51 -18 83 -46 99 -86 12 -27 16 -29 71 -29 l58 0 -9 31 c-20 68 -74 130
-144 166 -60 31 -179 40 -241 20z"/>
<path d="M8970 806 l0 -316 55 0 55 0 0 135 0 135 145 0 145 0 0 -135 0 -135
55 0 55 0 0 315 0 315 -55 0 -55 0 0 -130 0 -130 -145 0 -144 0 -3 128 -3 127
-52 3 -53 3 0 -315z"/>
<path d="M1970 1010 l0 -60 -36 0 -35 0 3 -42 c3 -40 5 -43 35 -46 l32 -3 3
-154 c3 -153 3 -155 30 -182 23 -23 38 -28 93 -31 l65 -4 0 46 c0 43 -1 46
-27 46 -54 0 -58 9 -61 149 l-4 130 44 3 c43 3 43 3 46 46 l3 42 -45 0 -46 0
0 60 0 60 -50 0 -50 0 0 -60z"/>
<path d="M760 949 c-14 -6 -35 -20 -47 -31 l-23 -21 0 26 c0 26 -2 27 -50 27
l-50 0 0 -230 0 -230 55 0 55 0 0 159 c0 151 1 161 23 186 15 18 36 28 64 32
35 5 45 2 67 -20 26 -26 26 -27 26 -192 l0 -165 55 0 55 0 0 144 c0 79 5 157
11 175 25 71 137 81 168 14 7 -14 11 -87 11 -178 l0 -155 55 0 55 0 -1 138
c-1 209 -13 254 -81 305 -54 40 -157 32 -217 -19 l-28 -24 -19 22 c-39 43
-125 60 -184 37z"/>
<path d="M1536 945 c-56 -20 -87 -45 -120 -99 -99 -159 14 -366 200 -366 93 0
178 54 215 135 25 54 25 157 0 211 -48 106 -181 160 -295 119z m154 -104 c40
-28 62 -79 57 -134 -5 -58 -30 -95 -81 -121 -111 -55 -223 73 -169 195 11 24
27 50 36 57 41 34 111 35 157 3z"/>
<path d="M2584 937 c-57 -28 -110 -85 -124 -137 -6 -19 -10 -60 -10 -90 1
-208 252 -309 400 -160 114 114 86 310 -55 382 -62 32 -149 34 -211 5z m176
-96 c37 -26 55 -69 54 -128 0 -63 -23 -99 -78 -127 -97 -48 -199 42 -181 160
15 103 123 153 205 95z"/>
<path d="M3196 950 c-16 -5 -39 -19 -52 -31 l-24 -22 0 26 c0 26 -2 27 -50 27
l-50 0 0 -230 0 -230 50 0 50 0 0 128 c1 206 19 247 111 247 41 0 54 -4 70
-24 17 -21 19 -41 19 -187 l0 -164 56 0 56 0 -4 178 c-3 156 -5 181 -23 212
-37 63 -129 94 -209 70z"/>
<path d="M4445 936 c-97 -45 -149 -156 -125 -270 21 -102 95 -173 192 -183 80
-8 135 11 190 67 63 62 63 80 1 80 -37 0 -53 -6 -74 -26 -54 -52 -161 -37
-194 27 -31 59 -32 59 161 59 l177 0 -7 53 c-23 172 -172 263 -321 193z m174
-93 c16 -16 32 -38 36 -50 6 -23 6 -23 -114 -23 -67 0 -121 2 -121 5 0 16 33
66 52 79 13 9 43 16 70 16 38 0 54 -5 77 -27z"/>
<path d="M4953 948 c-76 -25 -122 -118 -93 -187 17 -41 47 -58 143 -82 90 -23
107 -32 107 -60 0 -30 -28 -49 -75 -49 -57 0 -94 17 -101 47 -5 20 -12 23 -55
23 -43 0 -49 -3 -49 -20 0 -28 23 -70 52 -96 35 -33 93 -47 164 -41 106 8 164
60 164 147 0 63 -45 106 -135 126 -89 20 -119 34 -123 61 -5 32 24 53 73 53
36 0 48 -5 68 -30 22 -25 33 -30 71 -30 53 0 56 7 23 65 -40 71 -141 103 -234
73z"/>
<path d="M5652 949 c-18 -6 -50 -27 -72 -49 -93 -93 -89 -261 7 -352 37 -35
73 -48 133 -48 57 0 96 13 128 42 l22 21 0 -42 c0 -54 -24 -105 -56 -120 -44
-20 -108 -14 -138 14 -14 13 -26 29 -26 35 0 5 -22 10 -50 10 -46 0 -50 -2
-50 -25 0 -32 55 -94 105 -116 82 -38 207 -17 262 42 49 53 53 82 53 344 l0
245 -45 0 c-44 0 -45 -1 -45 -32 l0 -31 -23 21 c-49 47 -129 63 -205 41z m166
-106 c53 -33 68 -136 29 -194 -30 -45 -63 -61 -116 -56 -67 7 -103 49 -109
124 -3 49 0 64 20 93 39 57 116 72 176 33z"/>
<path d="M6260 945 c-19 -9 -42 -23 -52 -32 -17 -15 -18 -14 -18 10 0 26 -3
27 -50 27 l-50 0 0 -230 0 -230 55 0 55 0 0 156 0 156 34 34 c43 43 91 46 133
10 l28 -24 3 -166 3 -166 50 0 50 0 -3 184 c-3 201 -6 211 -71 260 -35 26
-121 31 -167 11z"/>
<path d="M7733 940 c-24 -10 -43 -24 -43 -30 0 -5 -4 -10 -10 -10 -5 0 -10 11
-10 25 0 23 -4 25 -45 25 l-45 0 0 -230 0 -230 49 0 50 0 3 161 3 161 33 29
c34 31 66 36 105 18 40 -18 47 -49 47 -214 l0 -155 55 0 55 0 0 159 c0 144 2
161 20 184 25 31 81 45 116 28 43 -19 54 -65 54 -226 l0 -145 50 0 50 0 0 168
c0 154 -2 171 -22 212 -29 56 -64 81 -121 87 -55 7 -113 -11 -150 -46 l-28
-26 -17 22 c-21 28 -81 53 -124 53 -18 0 -52 -9 -75 -20z"/>
<path d="M2247 943 c-4 -3 -7 -107 -7 -230 l0 -223 55 0 55 0 0 230 0 230 -48
0 c-27 0 -52 -3 -55 -7z"/>
<path d="M5310 721 l0 -231 55 0 55 0 -2 228 -3 227 -52 3 -53 3 0 -230z"/>
</g>
</svg>
