<svg xmlns="http://www.w3.org/2000/svg" width="30" height="30" viewBox="0 0 30 30">
  <g id="ico1" transform="translate(-320 -182)">
    <g id="Rechteck_19" data-name="Rechteck 19" transform="translate(320 182)" fill="#fff" stroke="#707070" stroke-width="1" opacity="0">
      <rect width="30" height="30" rx="15" stroke="none"/>
      <rect x="0.5" y="0.5" width="29" height="29" rx="14.5" fill="none"/>
    </g>
    <g id="Gruppe_24" data-name="Gruppe 24" transform="translate(25 -4)">
      <path id="Vereinigungsmenge_2" data-name="Vereinigungsmenge 2" d="M-10269-15935h-.078a5,5,0,0,1-4.923-5,4.985,4.985,0,0,1,2-4v-8a3,3,0,0,1,3-3,3,3,0,0,1,3,3v8a4.985,4.985,0,0,1,2,4,5,5,0,0,1-4.923,5Z" transform="translate(10579 16146)" fill="none" stroke="#bfc0c3" stroke-width="2"/>
      <circle id="Ellipse_30" data-name="Ellipse 30" cx="2" cy="2" r="2" transform="translate(308 204)" fill="#bfc0c3"/>
      <rect id="Rechteck_27" data-name="Rechteck 27" width="2" height="7" rx="1" transform="translate(309 200)" fill="#bfc0c3"/>
    </g>
  </g>
</svg>
